<svg width="512" height="512" xmlns="http://www.w3.org/2000/svg">
 <!-- Created with Method Draw - http://github.com/duopixel/Method-Draw/ -->
 <defs>
  <filter id="svg_3_blur" x="-50%" y="-50%" width="200%" height="200%">
   <feGaussianBlur stdDeviation="0.5"/>
  </filter>
 </defs>
 <g>
  <title>background</title>
  <rect x="-1" y="-1" width="514" height="514" id="canvas_background" fill="#ffffff"/>
  <g id="canvasGrid" display="none">
   <rect id="svg_2" width="100%" height="100%" x="0" y="0" stroke-width="0" fill="url(#gridpattern)"/>
  </g>
 </g>
 <g>
  <title>Layer 1</title>
  <path fill="#FFA9A2" stroke-width="6" d="m97.21264,463.42871l66.41934,-420.64626l221.39781,0l66.41931,420.64626l-354.23646,0z" id="svg_1" transform="rotate(5 274.3308715820307,253.1055908203123) " stroke="#000"/>
  <text stroke="#000" fill="#000000" stroke-width="0" stroke-opacity="null" x="215.803382" y="320.860595" id="svg_3" font-size="180" font-family="Arvo, sans-serif" text-anchor="start" xml:space="preserve" transform="rotate(5 272.8114929199227,258.19558715820295) matrix(1.0088121891021729,0,0,1.0003942251205444,-1.9015051797032356,-0.14540131203830242) " filter="url(#svg_3_blur)">E</text>
  <path stroke="#000" transform="rotate(5 285.45584106445284,152.96795654296878) " id="svg_4" d="m296.438274,149.476141c8.283068,0 16.566143,0 24.849211,0c0,2.327883 0,4.655769 0,6.983652c-8.283068,0 -16.566143,0 -24.849211,0c0,-2.327883 0,-4.655769 0,-6.983652zm-35.893317,0c9.203355,0 18.406888,0 27.610248,0c0,2.327883 0,4.655769 0,6.983652c-9.203355,0 -18.406888,0 -27.610248,0c0,-2.327883 0,-4.655769 0,-6.983652zm-33.132286,0c9.203355,0 18.406882,0 27.610236,0c0,2.327883 0,4.655769 0,6.983652c-9.203355,0 -18.406888,0 -27.610236,0c0,-2.327883 0,-4.655769 0,-6.983652zm-33.132286,0c9.203355,0 18.406882,0 27.610242,0c0,2.327883 0,4.655769 0,6.983652c-9.203361,0 -18.406882,0 -27.610242,0c0,-2.327883 0,-4.655769 0,-6.983652zm102.157888,14.401546c8.743291,-0.157675 17.486429,0.111405 26.229727,-0.04627c0.560996,-2.45721 0.30115,-4.914424 0.862146,-7.371634c8.182301,0 17.185446,0 25.367575,0c0,-2.327883 0,-4.65577 0,-6.983652c-8.283068,0 -16.566143,0 -24.849211,0c0,-2.586543 0,-5.173078 0,-7.759614c-9.203355,0 -18.406882,0 -27.610236,0c0,-2.327883 0,-4.655769 0,-6.983652c9.203355,0 18.406882,0 27.610236,0c0,2.327883 0,4.655769 0,6.983652c8.182135,0 17.18528,-0.115344 25.367575,-0.115344c0.560996,2.457203 0.301156,5.029767 0.862158,7.486977c8.743285,0.15767 17.609741,-0.013376 26.353044,0.144294c0,2.299543 -0.123324,4.927793 -0.123324,7.22734c-9.203355,0 -18.406882,0 -27.610236,0c0,2.586541 0,5.173073 0,7.759614c-8.283068,0 -16.566143,0 -24.849211,0c0,2.327883 0,4.655769 0,6.983652c-9.203355,0 -18.406882,0 -27.610236,0c0,-2.299543 0,-5.025822 0,-7.325367l-0.000006,0.000005z" stroke-width="5" fill="#fff"/>
 </g>
</svg>